HIERARCHY
ROOT mixamorig:Hips
{
	OFFSET -0.000008 104.274872 1.554316
	CHANNELS 6 Xposition Yposition Zposition Xrotation Yrotation Zrotation
	JOINT mixamorig:Spine
	{
		OFFSET -0.000005 10.181595 0.131521
		CHANNELS 3 Xrotation Yrotation Zrotation
		JOINT mixamorig:Spine1
		{
			OFFSET -0.000000 9.893959 -1.470711
			CHANNELS 3 Xrotation Yrotation Zrotation
			JOINT mixamorig:Spine2
			{
				OFFSET -0.000000 9.220757 -1.370642
				CHANNELS 3 Xrotation Yrotation Zrotation
				JOINT mixamorig:Neck
				{
					OFFSET 0.000001 16.740417 -2.049038
					CHANNELS 3 Xrotation Yrotation Zrotation
					JOINT mixamorig:Head
					{
						OFFSET 0.000000 9.617874 1.685009
						CHANNELS 3 Xrotation Yrotation Zrotation
						JOINT mixamorig:HeadTop_End
						{
							OFFSET 0.000002 22.037384 7.501098
							CHANNELS 3 Xrotation Yrotation Zrotation
							End Site
							{
								OFFSET 0.000002 23.106583 -2.828261
							}
						}
					}
				}
				JOINT mixamorig:RightShoulder
				{
					OFFSET -4.569969 11.014923 -2.160886
					CHANNELS 3 Xrotation Yrotation Zrotation
					JOINT mixamorig:RightArm
					{
						OFFSET -10.592850 -0.524811 -2.232100
						CHANNELS 3 Xrotation Yrotation Zrotation
						JOINT mixamorig:RightForeArm
						{
							OFFSET -27.841520 0.000015 -0.000005
							CHANNELS 3 Xrotation Yrotation Zrotation
							JOINT mixamorig:RightHand
							{
								OFFSET -28.328838 -0.000015 0.000018
								CHANNELS 3 Xrotation Yrotation Zrotation
								JOINT mixamorig:RightHandThumb1
								{
									OFFSET -2.464806 -1.573990 2.681853
									CHANNELS 3 Xrotation Yrotation Zrotation
									JOINT mixamorig:RightHandThumb2
									{
										OFFSET -3.215195 -1.872772 1.924282
										CHANNELS 3 Xrotation Yrotation Zrotation
										JOINT mixamorig:RightHandThumb3
										{
											OFFSET -2.654823 -1.527985 1.512609
											CHANNELS 3 Xrotation Yrotation Zrotation
											JOINT mixamorig:RightHandThumb4
											{
												OFFSET -2.018822 -1.152008 1.108055
												CHANNELS 3 Xrotation Yrotation Zrotation
												End Site
												{
													OFFSET -1.888100 -1.145340 1.324313
												}
											}
										}
									}
								}
								JOINT mixamorig:RightHandIndex1
								{
									OFFSET -9.108284 -0.517868 2.259835
									CHANNELS 3 Xrotation Yrotation Zrotation
									JOINT mixamorig:RightHandIndex2
									{
										OFFSET -3.699997 0.000000 0.001215
										CHANNELS 3 Xrotation Yrotation Zrotation
										JOINT mixamorig:RightHandIndex3
										{
											OFFSET -2.850014 0.000031 -0.000522
											CHANNELS 3 Xrotation Yrotation Zrotation
											JOINT mixamorig:RightHandIndex4
											{
												OFFSET -2.772179 -0.000015 -0.000019
												CHANNELS 3 Xrotation Yrotation Zrotation
												End Site
												{
													OFFSET -2.772186 0.000000 -0.000502
												}
											}
										}
									}
								}
								JOINT mixamorig:RightHandMiddle1
								{
									OFFSET -9.532509 -0.000046 -0.000025
									CHANNELS 3 Xrotation Yrotation Zrotation
									JOINT mixamorig:RightHandMiddle2
									{
										OFFSET -3.700012 0.000000 0.003713
										CHANNELS 3 Xrotation Yrotation Zrotation
										JOINT mixamorig:RightHandMiddle3
										{
											OFFSET -2.949989 0.000015 -0.002054
											CHANNELS 3 Xrotation Yrotation Zrotation
											JOINT mixamorig:RightHandMiddle4
											{
												OFFSET -2.946625 0.000000 -0.000154
												CHANNELS 3 Xrotation Yrotation Zrotation
												End Site
												{
													OFFSET -2.946632 0.000015 -0.001136
												}
											}
										}
									}
								}
								JOINT mixamorig:RightHandRing1
								{
									OFFSET -9.103600 -0.043076 -1.865135
									CHANNELS 3 Xrotation Yrotation Zrotation
									JOINT mixamorig:RightHandRing2
									{
										OFFSET -3.379272 0.000000 -0.001054
										CHANNELS 3 Xrotation Yrotation Zrotation
										JOINT mixamorig:RightHandRing3
										{
											OFFSET -2.889694 0.000015 0.000379
											CHANNELS 3 Xrotation Yrotation Zrotation
											JOINT mixamorig:RightHandRing4
											{
												OFFSET -2.638809 0.000000 0.000941
												CHANNELS 3 Xrotation Yrotation Zrotation
												End Site
												{
													OFFSET -2.638802 0.000000 0.005160
												}
											}
										}
									}
								}
								JOINT mixamorig:RightHandPinky1
								{
									OFFSET -8.076675 -0.486710 -3.806280
									CHANNELS 3 Xrotation Yrotation Zrotation
									JOINT mixamorig:RightHandPinky2
									{
										OFFSET -3.600006 -0.000031 -0.003747
										CHANNELS 3 Xrotation Yrotation Zrotation
										JOINT mixamorig:RightHandPinky3
										{
											OFFSET -2.099976 -0.000015 -0.005740
											CHANNELS 3 Xrotation Yrotation Zrotation
											JOINT mixamorig:RightHandPinky4
											{
												OFFSET -2.115776 -0.000031 -0.003680
												CHANNELS 3 Xrotation Yrotation Zrotation
												End Site
												{
													OFFSET -2.115776 -0.000015 -0.003507
												}
											}
										}
									}
								}
							}
						}
					}
				}
				JOINT mixamorig:LeftShoulder
				{
					OFFSET 4.570447 11.014725 -2.160858
					CHANNELS 3 Xrotation Yrotation Zrotation
					JOINT mixamorig:LeftArm
					{
						OFFSET 10.592371 -0.524597 -2.232121
						CHANNELS 3 Xrotation Yrotation Zrotation
						JOINT mixamorig:LeftForeArm
						{
							OFFSET 27.841520 -0.000015 0.000023
							CHANNELS 3 Xrotation Yrotation Zrotation
							JOINT mixamorig:LeftHand
							{
								OFFSET 28.328835 -0.000046 0.000017
								CHANNELS 3 Xrotation Yrotation Zrotation
								JOINT mixamorig:LeftHandThumb1
								{
									OFFSET 2.466141 -1.576187 2.681734
									CHANNELS 3 Xrotation Yrotation Zrotation
									JOINT mixamorig:LeftHandThumb2
									{
										OFFSET 3.217804 -1.872055 1.916487
										CHANNELS 3 Xrotation Yrotation Zrotation
										JOINT mixamorig:LeftHandThumb3
										{
											OFFSET 2.656021 -1.528809 1.514508
											CHANNELS 3 Xrotation Yrotation Zrotation
											JOINT mixamorig:LeftHandThumb4
											{
												OFFSET 2.020889 -1.154068 1.115132
												CHANNELS 3 Xrotation Yrotation Zrotation
												End Site
												{
													OFFSET 1.908852 -1.150833 1.300490
												}
											}
										}
									}
								}
								JOINT mixamorig:LeftHandIndex1
								{
									OFFSET 9.109306 -0.518036 2.259871
									CHANNELS 3 Xrotation Yrotation Zrotation
									JOINT mixamorig:LeftHandIndex2
									{
										OFFSET 3.699997 -0.000015 -0.000323
										CHANNELS 3 Xrotation Yrotation Zrotation
										JOINT mixamorig:LeftHandIndex3
										{
											OFFSET 2.850006 -0.000015 0.000350
											CHANNELS 3 Xrotation Yrotation Zrotation
											JOINT mixamorig:LeftHandIndex4
											{
												OFFSET 2.774857 -0.000015 -0.000027
												CHANNELS 3 Xrotation Yrotation Zrotation
												End Site
												{
													OFFSET 2.774864 0.000000 -0.000099
												}
											}
										}
									}
								}
								JOINT mixamorig:LeftHandMiddle1
								{
									OFFSET 9.533401 0.000031 0.000044
									CHANNELS 3 Xrotation Yrotation Zrotation
									JOINT mixamorig:LeftHandMiddle2
									{
										OFFSET 3.699997 0.000000 -0.000231
										CHANNELS 3 Xrotation Yrotation Zrotation
										JOINT mixamorig:LeftHandMiddle3
										{
											OFFSET 2.949997 -0.000015 -0.000059
											CHANNELS 3 Xrotation Yrotation Zrotation
											JOINT mixamorig:LeftHandMiddle4
											{
												OFFSET 2.952866 0.000000 0.000062
												CHANNELS 3 Xrotation Yrotation Zrotation
												End Site
												{
													OFFSET 2.952858 0.000000 0.000228
												}
											}
										}
									}
								}
								JOINT mixamorig:LeftHandRing1
								{
									OFFSET 9.104530 -0.043030 -1.865075
									CHANNELS 3 Xrotation Yrotation Zrotation
									JOINT mixamorig:LeftHandRing2
									{
										OFFSET 3.150009 0.000000 0.000042
										CHANNELS 3 Xrotation Yrotation Zrotation
										JOINT mixamorig:LeftHandRing3
										{
											OFFSET 2.949989 -0.000015 0.000040
											CHANNELS 3 Xrotation Yrotation Zrotation
											JOINT mixamorig:LeftHandRing4
											{
												OFFSET 2.644318 -0.000015 0.000056
												CHANNELS 3 Xrotation Yrotation Zrotation
												End Site
												{
													OFFSET 2.644318 0.000000 0.000120
												}
											}
										}
									}
								}
								JOINT mixamorig:LeftHandPinky1
								{
									OFFSET 8.077782 -0.486877 -3.806258
									CHANNELS 3 Xrotation Yrotation Zrotation
									JOINT mixamorig:LeftHandPinky2
									{
										OFFSET 3.599960 0.000031 0.014726
										CHANNELS 3 Xrotation Yrotation Zrotation
										JOINT mixamorig:LeftHandPinky3
										{
											OFFSET 2.099998 0.000031 0.007705
											CHANNELS 3 Xrotation Yrotation Zrotation
											JOINT mixamorig:LeftHandPinky4
											{
												OFFSET 2.125504 0.000000 0.007515
												CHANNELS 3 Xrotation Yrotation Zrotation
												End Site
												{
													OFFSET 2.125511 0.000015 0.006257
												}
											}
										}
									}
								}
							}
						}
					}
				}
			}
		}
	}
	JOINT mixamorig:RightUpLeg
	{
		OFFSET -8.207787 -6.751663 -1.599560
		CHANNELS 3 Xrotation Yrotation Zrotation
		JOINT mixamorig:RightLeg
		{
			OFFSET -0.000001 -44.370129 0.345939
			CHANNELS 3 Xrotation Yrotation Zrotation
			JOINT mixamorig:RightFoot
			{
				OFFSET 0.000001 -44.423679 -3.043537
				CHANNELS 3 Xrotation Yrotation Zrotation
				JOINT mixamorig:RightToeBase
				{
					OFFSET -0.000003 -8.728673 10.710563
					CHANNELS 3 Xrotation Yrotation Zrotation
					JOINT mixamorig:RightToe_End
					{
						OFFSET -0.000002 -0.000676 9.278122
						CHANNELS 3 Xrotation Yrotation Zrotation
						End Site
						{
							OFFSET -0.000003 -0.000676 9.278122
						}
					}
				}
			}
		}
	}
	JOINT mixamorig:LeftUpLeg
	{
		OFFSET 8.207791 -6.751694 -1.599555
		CHANNELS 3 Xrotation Yrotation Zrotation
		JOINT mixamorig:LeftLeg
		{
			OFFSET -0.000002 -44.370033 0.346957
			CHANNELS 3 Xrotation Yrotation Zrotation
			JOINT mixamorig:LeftFoot
			{
				OFFSET 0.000000 -44.423672 -3.044393
				CHANNELS 3 Xrotation Yrotation Zrotation
				JOINT mixamorig:LeftToeBase
				{
					OFFSET -0.000003 -8.728668 10.710562
					CHANNELS 3 Xrotation Yrotation Zrotation
					JOINT mixamorig:LeftToe_End
					{
						OFFSET -0.000003 -0.000676 9.278135
						CHANNELS 3 Xrotation Yrotation Zrotation
						End Site
						{
							OFFSET -0.000003 -0.000677 9.278135
						}
					}
				}
			}
		}
	}
}
MOTION
Frames: 4
Frame Time: 0.033333
0.144185 103.379509 1.422840 -3.753030 -5.218524 -3.761066 3.293731 1.538092 2.729318 1.146035 0.329158 1.552971 1.123710 0.356193 1.550934 5.622664 -0.077170 0.463899 -7.551145 1.374727 -0.084354 0.000000 0.000000 0.000000 1.189526 15.344138 14.707014 13.162685 27.550891 58.780977 0.000006 6.689829 0.000020 -20.175110 -0.523680 6.792824 -1.404251 -0.911175 -4.389027 12.357018 -28.813454 -16.070918 -15.653644 -2.728268 -12.611537 -0.000004 -0.000002 0.000004 0.039870 1.245782 6.828413 0.210742 -1.367776 17.412785 0.046035 -0.664475 8.059118 -0.000002 0.000002 0.000001 -0.120978 -2.262003 14.999439 0.202505 -1.302957 17.437191 0.238874 -1.513756 18.447246 -0.000001 -0.000001 -0.000000 0.025080 -3.061537 20.463438 0.311136 -1.693304 20.948679 0.232121 -1.446067 17.897216 -0.000001 0.000001 0.000000 0.721698 -4.832753 26.469420 0.167506 -1.308573 17.435115 0.164608 -1.389037 16.532092 0.000003 -0.000003 -0.000002 1.046098 -17.446000 -12.316919 3.915629 -19.989445 -69.767555 -0.000011 -1.452709 -0.000018 -33.228297 -1.359879 -6.191299 -0.448143 2.801651 4.979012 11.564274 24.508503 16.986561 -13.954989 2.828797 8.943857 0.000001 0.000000 -0.000003 0.019748 -0.971608 -7.590835 0.269983 1.764655 -17.376611 0.057623 0.813443 -8.038797 0.000001 -0.000000 0.000002 -0.078455 2.658352 -15.698645 0.268420 1.758233 -17.405234 0.300880 1.856288 -18.413094 -0.000001 -0.000000 0.000004 0.138204 3.645234 -21.134731 0.386826 2.094607 -20.910465 0.283328 1.800845 -17.867565 0.000001 0.000001 0.000003 1.030422 5.766724 -27.138075 0.331622 1.722128 -17.406466 0.299428 1.651637 -16.506197 0.000001 0.000002 -0.000001 0.603866 -10.385055 3.498353 7.413961 -9.751337 -3.277178 -3.692930 -1.648799 3.209436 -7.273742 0.000008 -0.000004 0.000001 0.000000 -0.000000 -10.796609 14.744290 10.341039 12.176953 2.032981 4.165451 1.272174 0.514319 -7.110258 -4.936087 0.000010 -0.000002 0.000003 -0.000000 0.000000 
-0.092015 103.149590 1.553777 -3.645855 -4.943744 -2.949979 3.275884 1.544066 2.195798 1.139330 0.323338 1.431886 1.117763 0.349081 1.430126 5.443773 -0.028001 0.433915 -7.696706 1.507519 -0.085492 0.000000 -0.000000 0.000000 1.202620 15.299330 14.632085 12.909419 26.615417 58.622209 0.000005 6.619652 -0.000006 -18.520469 -0.328597 6.777598 -1.404256 -0.911175 -4.389012 12.357035 -28.813662 -16.070957 -15.653636 -2.728352 -12.611546 -0.000001 0.000000 -0.000000 0.038658 1.126828 8.183029 0.267287 -1.537929 19.615349 0.074890 -0.843232 10.282128 -0.000001 -0.000001 -0.000004 -0.119816 -2.363703 16.180737 0.255621 -1.466340 19.547394 0.306154 -1.702201 20.905122 -0.000001 -0.000000 0.000000 0.044754 -3.158560 21.503157 0.378764 -1.859392 23.151917 0.298719 -1.635326 20.361868 -0.000002 0.000002 0.000002 0.789003 -4.900297 27.542736 0.216833 -1.474200 19.556218 0.216499 -1.564914 18.783995 0.000001 -0.000001 0.000001 1.044882 -17.434276 -12.335492 4.054088 -19.041575 -69.192535 0.000001 -1.990476 0.000004 -31.321936 -1.537051 -6.234076 -0.434247 2.518472 5.068010 11.371490 23.455059 16.214456 -14.100937 2.595604 9.366602 -0.000002 -0.000001 -0.000006 0.137841 -1.055578 -6.844797 0.301659 1.862453 -18.380789 0.090405 1.019267 -10.073229 -0.000000 0.000000 0.000003 -0.070263 2.750258 -16.454474 0.324025 1.926708 -19.138332 0.307051 1.874727 -18.602973 0.000000 -0.000000 -0.000003 0.153422 3.767856 -23.117610 0.424389 2.190277 -21.914739 0.287584 1.814043 -18.003221 0.000000 -0.000001 0.000001 0.907005 5.996239 -28.852546 0.397635 1.899739 -19.256451 0.367162 1.843111 -18.488914 0.000001 -0.000000 -0.000004 -1.372484 -10.322105 2.495487 11.075417 -9.916555 -3.285916 -5.569742 -2.093564 3.437323 -7.430045 0.000000 -0.000005 -0.000000 -0.000001 -0.000000 -11.096614 14.796058 9.715814 12.982701 1.911023 4.168631 0.832758 0.391760 -7.199486 -4.921991 -0.000001 -0.000004 0.000003 -0.000001 0.000000 
-0.341919 102.934074 1.704065 -3.579275 -4.644899 -2.144194 3.271706 1.537759 1.694286 1.131478 0.314762 1.304184 1.110754 0.339019 1.302707 5.401892 0.040340 0.391038 -7.964706 1.715749 -0.111825 0.000000 -0.000000 0.000000 1.207313 15.286013 14.602214 12.739526 25.660754 58.377825 -0.000016 6.632900 0.000007 -16.778491 -0.034266 6.642784 -1.404275 -0.911356 -4.388966 12.357217 -28.814813 -16.071401 -15.653673 -2.728432 -12.611362 0.000002 -0.000005 -0.000000 0.025081 0.988201 9.796424 0.335103 -1.717613 21.974708 0.111088 -1.022695 12.529991 0.000001 0.000001 -0.000001 -0.116778 -2.467973 17.408959 0.316039 -1.631040 21.702175 0.391443 -1.910603 23.672136 0.000001 0.000001 -0.000001 0.069298 -3.257075 22.416681 0.458220 -2.034254 25.512070 0.383581 -1.845252 23.143888 -0.000000 0.000001 0.000002 0.856579 -4.965456 28.524407 0.273833 -1.642297 21.735265 0.276907 -1.743117 21.094850 0.000002 0.000000 0.000001 1.048073 -17.417037 -12.334969 4.146403 -17.965119 -68.618205 -0.000005 -2.588867 -0.000006 -29.180744 -1.677212 -6.348004 -0.421390 2.253141 5.151814 11.171657 22.240021 15.460275 -14.272425 2.227609 9.751024 0.000001 0.000001 -0.000005 0.255281 -1.184759 -5.803514 0.328709 1.941534 -19.197140 0.126783 1.206450 -11.934838 -0.000001 0.000001 0.000003 -0.062266 2.822767 -17.025223 0.376806 2.072543 -20.653558 0.310116 1.883782 -18.696243 -0.000000 -0.000001 -0.000000 0.169095 3.884304 -24.998007 0.456136 2.267540 -22.731068 0.288904 1.818080 -18.044515 0.000000 0.000001 0.000002 0.796511 6.230134 -30.436682 0.471716 2.080615 -21.165023 0.443874 2.037884 -20.533154 -0.000000 0.000000 0.000001 -2.964066 -10.258710 1.571780 14.080925 -9.908968 -3.302648 -6.976176 -2.749673 3.659946 -7.510748 -0.000005 -0.000001 0.000001 0.000000 -0.000000 -11.309822 14.907931 9.103999 13.692731 1.797482 4.165436 0.440129 0.186588 -7.296204 -4.972355 0.000001 0.000001 0.000003 -0.000000 -0.000000 
-0.610931 102.697655 1.868755 -3.548698 -4.348321 -1.269021 3.281828 1.522607 1.149467 1.118399 0.304329 1.170627 1.098622 0.327012 1.169403 5.512698 0.126677 0.337362 -8.350649 2.005099 -0.159791 -0.000001 0.000000 -0.000000 1.201064 15.334447 14.609104 12.655522 24.684075 58.051274 0.000003 6.733206 0.000002 -14.828286 0.258504 6.368335 -1.404273 -0.911289 -4.388984 12.357101 -28.813839 -16.071222 -15.653670 -2.728153 -12.611383 0.000001 0.000003 0.000005 0.003280 0.833529 11.625355 0.414599 -1.904019 24.464645 0.154699 -1.202118 14.797463 -0.000006 0.000002 -0.000003 -0.111640 -2.574257 18.675344 0.383750 -1.796000 23.893007 0.496147 -2.133485 26.698443 -0.000001 -0.000000 -0.000001 0.098209 -3.356623 23.223328 0.549794 -2.215046 28.002963 0.488149 -2.070188 26.192201 -0.000000 -0.000001 0.000001 0.912619 -5.035134 29.427098 0.338651 -1.811756 23.963118 0.345982 -1.922472 23.455500 -0.000001 0.000000 0.000000 1.047188 -17.410487 -12.343665 3.946581 -16.728598 -68.110011 -0.000010 -2.822158 -0.000005 -26.806370 -2.117415 -6.482004 -0.409366 2.004840 5.230593 10.965146 20.869693 14.722473 -14.469119 1.730783 10.097450 0.000001 0.000003 -0.000003 0.375148 -1.356321 -4.479484 0.350562 2.002918 -19.833674 0.165208 1.375874 -13.631022 -0.000000 0.000001 0.000006 -0.054955 2.876761 -17.418821 0.425405 2.197121 -21.960136 0.310143 1.883856 -18.697045 -0.000001 -0.000001 -0.000003 0.185152 3.994826 -26.780320 0.481661 2.327454 -23.367501 0.287353 1.813301 -17.995487 -0.000000 -0.000001 -0.000002 0.698201 6.466607 -31.896123 0.554215 2.264082 -23.129747 0.530001 2.235269 -22.636437 0.000001 -0.000002 -0.000001 -4.339111 -10.139337 0.609357 16.763388 -9.947323 -3.297961 -8.361223 -3.328885 3.825272 -7.544262 0.000015 -0.000000 0.000001 0.000001 -0.000000 -11.498474 15.002446 8.437143 14.486684 1.699011 4.161506 0.027729 -0.020785 -7.412498 -5.009068 0.000004 -0.000005 0.000003 0.000001 0.000000 
